<svg id="visual" viewBox="0 0 960 540" width="960" height="540" xmlns="http://www.w3.org/2000/svg" xmlns:xlink="http://www.w3.org/1999/xlink" version="1.1"><rect x="0" y="0" width="960" height="540" fill="#ff6e61c9"></rect><path d="M396 540L410.2 530C424.3 520 452.7 500 466.5 480C480.3 460 479.7 440 480.5 420C481.3 400 483.7 380 471.7 360C459.7 340 433.3 320 440 300C446.7 280 486.3 260 483.2 240C480 220 434 200 418.3 180C402.7 160 417.3 140 447.2 120C477 100 522 80 521.2 60C520.3 40 473.7 20 450.3 10L427 0L960 0L960 10C960 20 960 40 960 60C960 80 960 100 960 120C960 140 960 160 960 180C960 200 960 220 960 240C960 260 960 280 960 300C960 320 960 340 960 360C960 380 960 400 960 420C960 440 960 460 960 480C960 500 960 520 960 530L960 540Z" fill="#0066ffbe" stroke-linecap="round" stroke-linejoin="miter"></path></svg>